<mxfile host="app.diagrams.net" modified="2024-02-20T12:22:22.884Z" agent="Mozilla/5.0 (Windows NT 10.0; Win64; x64; rv:122.0) Gecko/20100101 Firefox/122.0" etag="PWJ_I_2732YPFJL19dkw" version="23.1.5" type="github">
  <diagram name="Page-1" id="NOmNKjrk7oEb9HcgZXCT">
    <mxGraphModel dx="984" dy="527" grid="0" gridSize="10" guides="1" tooltips="1" connect="1" arrows="1" fold="1" page="0" pageScale="1" pageWidth="850" pageHeight="1100" math="0" shadow="0">
      <root>
        <mxCell id="0" />
        <mxCell id="1" parent="0" />
        <mxCell id="3eq2vNahSFNFPzDcWSJ6-1" value="Interview preparation portal " style="ellipse;whiteSpace=wrap;html=1;" vertex="1" parent="1">
          <mxGeometry x="233" y="160" width="120" height="80" as="geometry" />
        </mxCell>
        <mxCell id="3eq2vNahSFNFPzDcWSJ6-2" value="" style="endArrow=classic;html=1;rounded=0;fontSize=12;startSize=8;endSize=8;" edge="1" parent="1">
          <mxGeometry width="50" height="50" relative="1" as="geometry">
            <mxPoint x="268" y="72" as="sourcePoint" />
            <mxPoint x="268" y="162" as="targetPoint" />
          </mxGeometry>
        </mxCell>
        <mxCell id="3eq2vNahSFNFPzDcWSJ6-4" value="" style="endArrow=classic;html=1;rounded=0;fontSize=12;startSize=8;endSize=8;entryX=0.05;entryY=0.288;entryDx=0;entryDy=0;entryPerimeter=0;" edge="1" parent="1" target="3eq2vNahSFNFPzDcWSJ6-1">
          <mxGeometry width="50" height="50" relative="1" as="geometry">
            <mxPoint x="80" y="184" as="sourcePoint" />
            <mxPoint x="230" y="181" as="targetPoint" />
          </mxGeometry>
        </mxCell>
        <mxCell id="3eq2vNahSFNFPzDcWSJ6-5" value="User" style="rounded=0;whiteSpace=wrap;html=1;" vertex="1" parent="1">
          <mxGeometry x="-44" y="170" width="120" height="60" as="geometry" />
        </mxCell>
        <mxCell id="3eq2vNahSFNFPzDcWSJ6-6" value="" style="endArrow=classic;html=1;rounded=0;fontSize=12;startSize=8;endSize=8;exitX=0.042;exitY=0.675;exitDx=0;exitDy=0;exitPerimeter=0;entryX=1;entryY=0.75;entryDx=0;entryDy=0;" edge="1" parent="1" source="3eq2vNahSFNFPzDcWSJ6-1" target="3eq2vNahSFNFPzDcWSJ6-5">
          <mxGeometry width="50" height="50" relative="1" as="geometry">
            <mxPoint x="253" y="226" as="sourcePoint" />
            <mxPoint x="303" y="176" as="targetPoint" />
          </mxGeometry>
        </mxCell>
        <mxCell id="3eq2vNahSFNFPzDcWSJ6-7" value="responce" style="text;html=1;align=center;verticalAlign=middle;whiteSpace=wrap;rounded=0;fontSize=16;" vertex="1" parent="1">
          <mxGeometry x="131" y="210" width="69" height="30" as="geometry" />
        </mxCell>
        <mxCell id="3eq2vNahSFNFPzDcWSJ6-8" value="request" style="text;html=1;align=center;verticalAlign=middle;resizable=0;points=[];autosize=1;strokeColor=none;fillColor=none;fontSize=16;" vertex="1" parent="1">
          <mxGeometry x="120" y="157" width="71" height="31" as="geometry" />
        </mxCell>
        <mxCell id="3eq2vNahSFNFPzDcWSJ6-10" value="" style="endArrow=classic;html=1;rounded=0;fontSize=12;startSize=8;endSize=8;" edge="1" parent="1">
          <mxGeometry width="50" height="50" relative="1" as="geometry">
            <mxPoint x="305" y="157" as="sourcePoint" />
            <mxPoint x="305" y="71" as="targetPoint" />
          </mxGeometry>
        </mxCell>
        <mxCell id="3eq2vNahSFNFPzDcWSJ6-11" value="Admin" style="rounded=0;whiteSpace=wrap;html=1;" vertex="1" parent="1">
          <mxGeometry x="225" y="9" width="120" height="60" as="geometry" />
        </mxCell>
      </root>
    </mxGraphModel>
  </diagram>
</mxfile>
